<svg width="649" height="482" viewBox="0 0 649 482" fill="none" xmlns="http://www.w3.org/2000/svg">
<path d="M648.48 424.625H0V424.949H648.48V424.625Z" fill="#E6E6E6"/>
<path d="M147.672 435.026H103.057V435.351H147.672V435.026Z" fill="#E6E6E6"/>
<path d="M169.551 435.026H156.219V435.351H169.551V435.026Z" fill="#E6E6E6"/>
<path d="M235.333 428.658H210.224V428.982H235.333V428.658Z" fill="#E6E6E6"/>
<path d="M558.484 442.225H502.468V442.549H558.484V442.225Z" fill="#E6E6E6"/>
<path d="M578.25 442.225H570.04V442.549H578.25V442.225Z" fill="#E6E6E6"/>
<path d="M516.644 430.837H395.145V431.162H516.644V430.837Z" fill="#E6E6E6"/>
<path d="M307.379 366.78H56.9493C54.9875 366.777 53.1071 365.995 51.7211 364.607C50.3351 363.218 49.5566 361.337 49.5566 359.375V7.34079C49.5737 5.3902 50.3597 3.52511 51.7439 2.15064C53.1281 0.776176 54.9986 0.00334147 56.9493 0H307.379C309.343 0 311.227 0.780235 312.616 2.16906C314.005 3.55789 314.785 5.44154 314.785 7.40564V359.375C314.785 361.339 314.005 363.222 312.616 364.611C311.227 366 309.343 366.78 307.379 366.78ZM56.9493 0.259393C55.0735 0.262829 53.2756 1.01042 51.9504 2.33806C50.6252 3.66571 49.8809 5.46493 49.8809 7.34079V359.375C49.8809 361.251 50.6252 363.05 51.9504 364.377C53.2756 365.705 55.0735 366.453 56.9493 366.456H307.379C309.256 366.453 311.056 365.705 312.383 364.378C313.71 363.051 314.457 361.252 314.461 359.375V7.34079C314.457 5.46374 313.71 3.66455 312.383 2.33727C311.056 1.01 309.256 0.262821 307.379 0.259393H56.9493Z" fill="#E6E6E6"/>
<path d="M587.925 366.78H337.482C335.519 366.777 333.637 365.996 332.249 364.607C330.861 363.219 330.08 361.338 330.076 359.375V7.34079C330.097 5.38902 330.886 3.52394 332.272 2.14983C333.658 0.775723 335.53 0.00330503 337.482 0H587.925C589.873 0.00675002 591.741 0.781093 593.122 2.15519C594.503 3.5293 595.287 5.39244 595.305 7.34079V359.375C595.305 361.334 594.528 363.214 593.145 364.602C591.761 365.99 589.884 366.773 587.925 366.78ZM337.482 0.259393C335.605 0.262821 333.806 1.01 332.478 2.33727C331.151 3.66455 330.404 5.46374 330.4 7.34079V359.375C330.404 361.252 331.151 363.051 332.478 364.378C333.806 365.705 335.605 366.453 337.482 366.456H587.925C589.802 366.453 591.601 365.705 592.928 364.378C594.256 363.051 595.003 361.252 595.006 359.375V7.34079C595.003 5.46374 594.256 3.66455 592.928 2.33727C591.601 1.01 589.802 0.262821 587.925 0.259393H337.482Z" fill="#E6E6E6"/>
<path d="M543.452 247.862H452.574V424.625H543.452V247.862Z" fill="#F5F5F5"/>
<path d="M543.452 247.862H535.956V424.625H543.452V247.862Z" fill="#F0F0F0"/>
<path d="M250.339 291.09H459.578V252.907L250.339 252.907V291.09Z" fill="#E0E0E0"/>
<path d="M337.586 424.755H247.875C247.531 424.755 247.201 424.618 246.958 424.375C246.715 424.132 246.578 423.802 246.578 423.458C246.578 423.114 246.715 422.784 246.958 422.541C247.201 422.297 247.531 422.161 247.875 422.161H337.586C350.555 422.161 352.28 418.374 352.28 403.355V213.999C352.28 213.655 352.417 213.325 352.66 213.082C352.904 212.838 353.233 212.702 353.577 212.702C353.921 212.702 354.251 212.838 354.494 213.082C354.738 213.325 354.874 213.655 354.874 213.999V403.355C354.874 419.411 352.384 424.755 337.586 424.755Z" fill="#E0E0E0"/>
<path d="M258.381 261.804L541.403 261.804V248.549L258.381 248.549V261.804Z" fill="#F0F0F0"/>
<path d="M260.43 247.862H169.552V424.625H260.43V247.862Z" fill="#F5F5F5"/>
<path d="M260.417 247.862H252.92V424.625H260.417V247.862Z" fill="#F0F0F0"/>
<path d="M196.074 424.625L196.074 109.853H118.088L118.088 424.625H196.074Z" fill="#FAFAFA"/>
<path d="M191.794 188.474V119.048H122.368V188.474H191.794Z" fill="#F5F5F5"/>
<path d="M141.706 118.114H172.496C172.496 120.023 171.738 121.854 170.388 123.204C169.038 124.554 167.207 125.312 165.298 125.312H148.956C148.006 125.319 147.065 125.138 146.186 124.779C145.306 124.421 144.507 123.892 143.833 123.223C143.159 122.553 142.624 121.758 142.259 120.881C141.894 120.004 141.706 119.064 141.706 118.114Z" fill="#E0E0E0"/>
<path d="M191.782 264.126V194.7H122.355V264.126H191.782Z" fill="#F5F5F5"/>
<path d="M191.794 339.778V270.352H122.368V339.778H191.794Z" fill="#F5F5F5"/>
<path d="M191.794 415.442V346.016H122.368V415.442H191.794Z" fill="#F5F5F5"/>
<path d="M141.706 193.779H172.496C172.492 195.687 171.733 197.516 170.384 198.865C169.035 200.214 167.206 200.974 165.298 200.977H148.956C148.007 200.982 147.066 200.8 146.188 200.44C145.309 200.081 144.51 199.552 143.836 198.883C143.163 198.214 142.628 197.419 142.262 196.543C141.897 195.667 141.708 194.728 141.706 193.779Z" fill="#E0E0E0"/>
<path d="M141.706 269.431H172.496C172.496 271.34 171.738 273.171 170.388 274.521C169.038 275.87 167.207 276.629 165.298 276.629H148.956C148.006 276.636 147.065 276.455 146.186 276.096C145.306 275.737 144.507 275.208 143.833 274.539C143.159 273.87 142.624 273.074 142.259 272.197C141.894 271.321 141.706 270.38 141.706 269.431Z" fill="#E0E0E0"/>
<path d="M141.706 345.082H172.496C172.496 346.991 171.738 348.822 170.388 350.172C169.038 351.522 167.207 352.28 165.298 352.28H148.956C148.006 352.287 147.065 352.106 146.186 351.747C145.306 351.389 144.507 350.859 143.833 350.19C143.159 349.521 142.624 348.725 142.259 347.849C141.894 346.972 141.706 346.032 141.706 345.082Z" fill="#E0E0E0"/>
<path d="M118.088 424.625L118.088 109.853H79.1407L79.1407 424.625H118.088Z" fill="#F0F0F0"/>
<path d="M342.903 247.862H323.306L328.066 209.706H347.676L342.903 247.862Z" fill="#F0F0F0"/>
<path d="M347.248 247.862H327.638L332.411 209.706H352.008L347.248 247.862Z" fill="#F5F5F5"/>
<path d="M389.296 247.862H375.12L372.409 243.543H386.572L389.296 247.862Z" fill="#F0F0F0"/>
<path d="M465.246 247.862H379.452L376.741 243.543H453.677L465.246 247.862Z" fill="#FAFAFA"/>
<path d="M280.74 236.916H286.939C289.842 236.916 292.627 238.069 294.68 240.122C296.732 242.175 297.886 244.959 297.886 247.862H269.768C269.768 246.422 270.052 244.997 270.603 243.667C271.155 242.337 271.964 241.129 272.983 240.112C274.002 239.096 275.212 238.29 276.543 237.741C277.874 237.193 279.3 236.912 280.74 236.916Z" fill="#F0F0F0"/>
<path d="M349.621 228.784H330.024L332.411 209.706H352.008L349.621 228.784Z" fill="#F0F0F0"/>
<path d="M277.549 224.219H416.324C416.597 224.219 416.867 224.161 417.116 224.049C417.365 223.937 417.587 223.772 417.768 223.567C417.948 223.362 418.083 223.121 418.163 222.86C418.242 222.599 418.266 222.324 418.231 222.053L407.544 136.557C407.487 136.092 407.261 135.663 406.91 135.353C406.559 135.042 406.106 134.871 405.637 134.871H266.901C266.629 134.871 266.361 134.928 266.113 135.04C265.865 135.152 265.643 135.314 265.463 135.518C265.283 135.722 265.148 135.961 265.067 136.221C264.986 136.48 264.962 136.754 264.995 137.024L275.682 222.533C275.738 222.991 275.958 223.415 276.301 223.724C276.644 224.034 277.087 224.21 277.549 224.219Z" fill="#F0F0F0"/>
<path d="M279.651 224.219H418.335C418.608 224.219 418.878 224.161 419.127 224.049C419.376 223.937 419.598 223.772 419.778 223.567C419.959 223.362 420.093 223.121 420.173 222.86C420.253 222.599 420.276 222.324 420.241 222.053L409.554 136.557C409.495 136.093 409.268 135.666 408.918 135.356C408.567 135.046 408.116 134.874 407.648 134.871H268.964C268.692 134.871 268.423 134.928 268.175 135.04C267.927 135.152 267.706 135.314 267.525 135.518C267.345 135.722 267.21 135.961 267.13 136.221C267.049 136.48 267.024 136.754 267.057 137.024L277.744 222.533C277.801 222.998 278.027 223.426 278.378 223.737C278.729 224.048 279.182 224.219 279.651 224.219Z" fill="#F5F5F5"/>
<path d="M415.767 219.485L405.767 139.462C405.748 139.332 405.683 139.212 405.583 139.127C405.482 139.041 405.354 138.994 405.222 138.995H272.064C271.987 138.993 271.911 139.007 271.841 139.037C271.771 139.067 271.708 139.112 271.657 139.169C271.607 139.226 271.569 139.293 271.547 139.366C271.526 139.44 271.52 139.517 271.532 139.592L281.531 219.627C281.547 219.757 281.61 219.876 281.708 219.962C281.806 220.048 281.933 220.095 282.063 220.094H415.235C415.311 220.093 415.386 220.076 415.456 220.044C415.525 220.012 415.586 219.965 415.636 219.908C415.687 219.85 415.724 219.783 415.746 219.71C415.769 219.637 415.776 219.561 415.767 219.485Z" fill="#E0E0E0"/>
<path d="M365.081 247.862H333.15V247.46C333.15 246.617 333.485 245.809 334.081 245.213C334.676 244.617 335.485 244.282 336.327 244.282H361.903C362.746 244.282 363.554 244.617 364.15 245.213C364.746 245.809 365.081 246.617 365.081 247.46V247.862Z" fill="#FAFAFA"/>
<path d="M336.873 247.862H315.213V247.46C315.213 246.617 315.548 245.809 316.144 245.213C316.74 244.617 317.548 244.282 318.391 244.282H333.695C334.538 244.282 335.346 244.617 335.942 245.213C336.538 245.809 336.873 246.617 336.873 247.46V247.862Z" fill="#F0F0F0"/>
<path d="M151.044 74.303V74.2381C151.342 73.2394 151.627 72.2278 151.874 71.2162C152.313 71.9155 152.91 72.5017 153.618 72.9275C154.325 73.3533 155.123 73.6068 155.946 73.6674H156.297C158.462 73.4599 160.538 71.3589 161.848 68.0516C161.873 67.9921 161.886 67.9282 161.886 67.8635C161.886 67.7989 161.873 67.735 161.848 67.6755C161.785 67.5571 161.677 67.4684 161.549 67.4291C159.995 67.035 158.374 66.9734 156.794 67.2483C155.214 67.5232 153.71 68.1284 152.38 69.0243C152.574 68.0646 152.743 67.0919 152.886 66.1321C153.228 66.1981 153.575 66.2328 153.923 66.2359C157.451 66.2359 160.045 63.0842 160.174 62.9286C160.22 62.8715 160.252 62.8044 160.267 62.7327C160.282 62.6611 160.28 62.587 160.261 62.5163C160.242 62.4456 160.207 62.3804 160.158 62.3258C160.109 62.2713 160.048 62.229 159.98 62.2023C159.16 61.7955 158.264 61.5667 157.35 61.5309C156.436 61.4951 155.524 61.6532 154.675 61.9948C153.769 62.4556 153.037 63.1972 152.587 64.1089C151.926 62.0794 150.718 60.2716 149.096 58.8849C147.473 57.4981 145.499 56.5861 143.392 56.2493C143.326 56.2338 143.258 56.234 143.193 56.2497C143.128 56.2655 143.067 56.2965 143.016 56.3401C142.961 56.3783 142.917 56.4287 142.885 56.4872C142.854 56.5458 142.836 56.6108 142.834 56.6773C142.652 59.8808 142.756 63.8105 145.156 65.6782C146.159 66.4183 147.386 66.7935 148.631 66.7417C149.748 66.7148 150.855 66.5403 151.926 66.2229C151.583 68.5408 151.085 70.8329 150.434 73.0838C148.087 69.8857 144.757 67.5442 140.953 66.4174C140.833 66.3895 140.707 66.4089 140.601 66.4717C140.494 66.5345 140.416 66.6358 140.383 66.7547C139.657 69.5172 140.033 71.7609 141.459 73.2395C142.185 73.8912 143.034 74.3902 143.957 74.7066C144.879 75.023 145.856 75.1504 146.829 75.0811C147.874 75.0745 148.917 74.9659 149.941 74.7569C149.345 76.6505 148.644 78.5051 147.983 80.269C146.543 78.972 142.302 75.7555 137.685 77.1044C137.561 77.1455 137.459 77.2341 137.4 77.3508C137.374 77.4103 137.361 77.4742 137.361 77.5389C137.361 77.6035 137.374 77.6675 137.4 77.7269C138.697 80.7878 140.085 82.4868 141.874 83.0704C142.351 83.2277 142.851 83.3065 143.353 83.3039C144.723 83.2456 146.059 82.8539 147.244 82.1625C146.258 84.51 145.208 86.7019 144.209 88.6473C143.024 87.4385 141.534 86.5717 139.898 86.138C138.261 85.7043 136.538 85.7199 134.91 86.1831C134.799 86.2051 134.7 86.2679 134.632 86.3591C134.565 86.4503 134.535 86.5633 134.546 86.676C134.661 87.6568 135.032 88.5902 135.622 89.3825C136.211 90.1747 136.999 90.7979 137.906 91.1894C138.59 91.4835 139.327 91.6337 140.072 91.6303C141.105 91.6174 142.119 91.3549 143.029 90.8651C142.017 92.7457 141.083 94.3151 140.357 95.5083H131.538C130.137 93.1089 128.516 90.1259 126.933 86.7797C127.67 86.9998 128.434 87.1176 129.203 87.1299C130.149 87.1416 131.085 86.9354 131.938 86.5273C132.791 86.1191 133.539 85.52 134.123 84.7763C134.708 84.0326 135.113 83.1643 135.308 82.2387C135.503 81.3131 135.482 80.3551 135.247 79.4389C135.217 79.3325 135.148 79.2409 135.055 79.1811C134.962 79.1214 134.85 79.0978 134.741 79.1147C132.94 79.2903 131.208 79.8971 129.691 80.8836C128.174 81.8701 126.917 83.2074 126.025 84.7824C124.988 82.4479 123.976 79.9707 123.094 77.4157C124.217 78.0544 125.475 78.4188 126.765 78.4792C127.277 78.485 127.786 78.4016 128.269 78.2327C130.863 77.3768 132.355 74.2511 133.626 71.0087C133.654 70.9501 133.669 70.8858 133.669 70.8206C133.669 70.7554 133.654 70.6911 133.626 70.6326C133.596 70.573 133.554 70.5204 133.502 70.4779C133.451 70.4355 133.391 70.4043 133.327 70.3861C128.14 68.9335 123.873 73.9268 122.55 75.7166C121.858 73.5571 121.282 71.3621 120.825 69.1411C121.914 69.3544 123.021 69.4672 124.132 69.4783C125.235 69.5589 126.344 69.4117 127.388 69.0458C128.432 68.6799 129.39 68.1031 130.202 67.3513C131.771 65.6911 132.147 63.201 131.304 60.1661C131.289 60.1066 131.262 60.0507 131.225 60.0019C131.188 59.9531 131.141 59.9123 131.088 59.882C131.035 59.8517 130.976 59.8325 130.915 59.8256C130.854 59.8187 130.792 59.8242 130.733 59.8419C126.595 61.1334 122.992 63.7433 120.474 67.2734L120.28 66.0932C120.266 65.9911 120.221 65.8958 120.15 65.8208C119.936 65.0535 119.564 64.3395 119.057 63.7251C118.549 63.1108 117.919 62.6097 117.206 62.2542C116.271 61.8932 115.269 61.7343 114.268 61.788C113.266 61.8416 112.287 62.1066 111.396 62.5655C111.327 62.5951 111.266 62.6395 111.217 62.6956C111.167 62.7517 111.131 62.8179 111.11 62.8897C111.094 62.9601 111.096 63.0334 111.114 63.1033C111.132 63.1732 111.166 63.2378 111.214 63.2918C111.344 63.4604 114.197 66.8325 118.036 66.8325C118.45 66.8271 118.862 66.7837 119.268 66.7028C119.437 67.8052 119.644 68.9076 119.878 69.9971C118.399 69.0234 116.73 68.3743 114.982 68.0926C113.234 67.811 111.446 67.9031 109.736 68.3629C109.607 68.4022 109.5 68.4909 109.437 68.6093C109.412 68.6709 109.398 68.7371 109.398 68.8039C109.398 68.8706 109.412 68.9367 109.437 68.9984C110.929 72.6039 113.237 74.8866 115.624 75.0811H115.948C117.154 75.0811 118.788 74.5234 120.449 72.3056C121.102 74.8274 121.89 77.3125 122.809 79.7502C120.565 78.6867 115.52 76.858 111.915 79.6464C111.865 79.6823 111.823 79.7277 111.792 79.7801C111.76 79.8325 111.739 79.8908 111.731 79.9513C111.723 80.0119 111.726 80.0735 111.742 80.1326C111.758 80.1916 111.786 80.2469 111.824 80.2949C114.158 83.4725 116.311 85.0159 118.425 85.0159C120.176 85.0159 121.849 83.9134 123.522 81.7345C124.482 84.1209 125.52 86.4036 126.544 88.5047C124.301 87.1169 121.836 87.3374 118.931 89.1661C118.864 89.2064 118.808 89.2634 118.77 89.3316C118.731 89.3998 118.711 89.4768 118.711 89.5552C118.705 89.6315 118.721 89.7079 118.755 89.7763C118.789 89.8447 118.841 89.9027 118.905 89.9443C120.635 91.1915 122.679 91.9325 124.806 92.0843C125.904 92.1061 126.98 91.7791 127.88 91.1505C128.71 92.7457 129.527 94.2113 130.279 95.5212H126.272V97.8039H127.724L128.931 109.892H146.686L147.879 97.8039H149.345V95.5212H141.369C142.25 94.0557 143.379 92.0972 144.585 89.8016C144.621 89.7554 144.647 89.7025 144.663 89.646C144.974 89.0624 145.272 88.4658 145.584 87.8432C146.111 88.6413 146.822 89.3015 147.657 89.7685C148.492 90.2356 149.426 90.496 150.382 90.5279C150.581 90.5408 150.78 90.5408 150.979 90.5279C152.036 90.4082 153.038 89.9982 153.876 89.3435C154.714 88.6888 155.354 87.8149 155.726 86.8186C155.764 86.7163 155.764 86.6035 155.726 86.501C155.688 86.3986 155.614 86.3133 155.518 86.2609C154.158 85.4927 152.635 85.0592 151.075 84.996C149.514 84.9329 147.961 85.242 146.543 85.8978C147.218 84.4841 147.84 82.9667 148.515 81.3973C148.566 81.3391 148.597 81.2667 148.606 81.1898C148.787 80.7488 148.956 80.3079 149.137 79.8929C150.681 81.8383 152.211 82.798 153.806 82.798C155.739 82.798 157.697 81.3714 159.798 78.4273C159.871 78.3289 159.903 78.2058 159.886 78.0845C159.869 77.9632 159.805 77.8534 159.708 77.7788C156.4 75.3016 151.926 77.0006 149.825 77.9863C150.253 76.8191 150.642 75.6388 151.005 74.4327L151.044 74.303Z" fill="#E0E0E0"/>
<path d="M521.988 68.8296H455.661V141.654H521.988V68.8296Z" fill="#E0E0E0"/>
<path d="M513.804 71.8125C513.749 71.8257 513.691 71.8257 513.635 71.8125C513.48 71.7087 497.812 62.3965 492.884 62.3965C487.956 62.3965 472.976 71.7087 472.82 71.7995C472.785 71.8229 472.745 71.8388 472.703 71.8462C472.661 71.8537 472.618 71.8525 472.577 71.8428C472.536 71.8331 472.497 71.815 472.463 71.7897C472.429 71.7644 472.4 71.7324 472.379 71.6957C472.335 71.6232 472.322 71.5365 472.341 71.4541C472.361 71.3717 472.411 71.3002 472.483 71.2548C473.105 70.8657 487.722 61.748 492.884 61.748C498.046 61.748 513.376 70.8268 514.024 71.2548C514.061 71.276 514.093 71.3046 514.118 71.3386C514.144 71.3727 514.162 71.4116 514.172 71.4529C514.181 71.4942 514.182 71.537 514.175 71.5788C514.168 71.6205 514.152 71.6603 514.128 71.6957C514.092 71.745 514.041 71.7823 513.984 71.8031C513.926 71.8238 513.863 71.8271 513.804 71.8125Z" fill="#EBEBEB"/>
<path d="M529.16 68.8296H460.654V141.654H529.16V68.8296Z" fill="#F5F5F5"/>
<path d="M523.427 135.909V74.5625H466.4V135.909H523.427Z" fill="white"/>
<path d="M505.958 116.287C512.062 110.184 512.062 100.289 505.958 94.1854C499.855 88.0821 489.96 88.0822 483.857 94.1854C477.753 100.289 477.753 110.184 483.857 116.287C489.96 122.391 499.855 122.391 505.958 116.287Z" fill="#E0E0E0"/>
<path d="M493.584 336.237H551.714C557.047 336.241 562.17 334.153 565.98 330.42C569.79 326.688 571.984 321.609 572.089 316.277L574.268 209.848C574.308 207.873 573.953 205.91 573.224 204.074C572.496 202.237 571.408 200.565 570.025 199.154C568.642 197.743 566.992 196.623 565.17 195.858C563.349 195.093 561.393 194.699 559.418 194.7H522.973C519.327 194.699 515.808 196.04 513.088 198.468C510.368 200.897 508.638 204.241 508.227 207.864L493.584 336.237Z" fill="#E6E6E6"/>
<path d="M525.308 336.237H463.365C462.594 336.237 461.855 335.931 461.311 335.386C460.766 334.841 460.46 334.102 460.46 333.332V333.059C460.46 330.947 461.299 328.922 462.792 327.428C464.285 325.935 466.311 325.096 468.423 325.096H525.308V336.237Z" fill="#E6E6E6"/>
<path d="M520.418 426.077C520.117 426.084 519.822 425.985 519.585 425.798C519.349 425.611 519.184 425.347 519.121 425.053L500.964 337.534H469.318L451.16 425.053C451.09 425.396 450.886 425.698 450.593 425.892C450.3 426.085 449.942 426.154 449.598 426.084C449.254 426.013 448.952 425.809 448.758 425.516C448.565 425.223 448.496 424.865 448.567 424.521L466.957 335.977C467.018 335.68 467.181 335.413 467.418 335.224C467.655 335.034 467.951 334.934 468.254 334.94H501.975C502.279 334.934 502.575 335.034 502.812 335.224C503.049 335.413 503.212 335.68 503.272 335.977L521.65 424.521C521.719 424.856 521.653 425.205 521.466 425.492C521.279 425.778 520.986 425.979 520.652 426.051C520.575 426.069 520.497 426.078 520.418 426.077Z" fill="#E6E6E6"/>
<path d="M500.691 426.078C500.605 426.09 500.518 426.09 500.432 426.078C500.265 426.044 500.106 425.977 499.965 425.882C499.824 425.786 499.703 425.664 499.609 425.522C499.515 425.38 499.45 425.221 499.418 425.053C499.385 424.886 499.386 424.714 499.42 424.547L517.811 336.004C517.872 335.706 518.035 335.44 518.272 335.25C518.509 335.06 518.805 334.96 519.108 334.966H552.829C553.133 334.96 553.429 335.06 553.665 335.25C553.902 335.44 554.065 335.706 554.126 336.004L572.504 424.547C572.539 424.717 572.54 424.893 572.507 425.064C572.474 425.234 572.408 425.397 572.312 425.542C572.216 425.687 572.093 425.812 571.949 425.91C571.805 426.007 571.643 426.075 571.473 426.11C571.303 426.145 571.127 426.146 570.956 426.113C570.786 426.08 570.623 426.014 570.478 425.918C570.333 425.822 570.208 425.699 570.111 425.555C570.013 425.411 569.945 425.249 569.91 425.079L551.753 337.56H520.081L501.923 425.079C501.857 425.358 501.701 425.608 501.478 425.788C501.255 425.969 500.978 426.071 500.691 426.078Z" fill="#E6E6E6"/>
<path d="M335.24 481.196C474.122 481.196 586.708 474.622 586.708 466.514C586.708 458.406 474.122 451.833 335.24 451.833C196.358 451.833 83.7725 458.406 83.7725 466.514C83.7725 474.622 196.358 481.196 335.24 481.196Z" fill="#F5F5F5"/>
<path d="M369.687 451.287C369.28 451.287 368.887 451.145 368.573 450.888C368.258 450.63 368.043 450.272 367.962 449.874L343.32 328.53H300.403L275.761 449.874C275.644 450.306 275.366 450.678 274.985 450.913C274.603 451.148 274.147 451.229 273.708 451.14C273.269 451.051 272.88 450.798 272.621 450.433C272.361 450.068 272.251 449.617 272.311 449.173L297.239 326.416C297.322 326.019 297.538 325.662 297.852 325.405C298.165 325.148 298.558 325.006 298.964 325.002H344.746C345.153 325.003 345.546 325.144 345.861 325.402C346.175 325.66 346.391 326.018 346.471 326.416L371.412 449.173C371.504 449.631 371.411 450.106 371.153 450.495C370.895 450.884 370.494 451.155 370.037 451.249L369.687 451.287Z" fill="#407BFF"/>
<path d="M300.805 451.287C300.399 451.284 300.007 451.142 299.693 450.885C299.379 450.628 299.163 450.271 299.08 449.874L274.438 328.53H231.522L206.879 449.874C206.847 450.113 206.765 450.343 206.641 450.549C206.516 450.756 206.35 450.934 206.153 451.074C205.956 451.214 205.733 451.311 205.497 451.361C205.261 451.411 205.017 451.412 204.781 451.364C204.544 451.316 204.32 451.22 204.122 451.082C203.924 450.944 203.757 450.767 203.63 450.562C203.504 450.356 203.42 450.127 203.386 449.888C203.351 449.65 203.366 449.406 203.429 449.173L228.37 326.416C228.451 326.018 228.666 325.66 228.981 325.402C229.295 325.144 229.689 325.003 230.095 325.002H275.878C276.282 325.004 276.674 325.145 276.986 325.403C277.298 325.661 277.512 326.019 277.59 326.416L302.53 449.173C302.622 449.631 302.529 450.106 302.271 450.495C302.014 450.884 301.612 451.155 301.155 451.249L300.805 451.287Z" fill="#407BFF"/>
<path d="M310.442 326.779H231.587C224.349 326.781 217.399 323.944 212.229 318.879C207.059 313.813 204.081 306.922 203.935 299.686L201.004 179.847C200.949 177.168 201.429 174.505 202.416 172.014C203.402 169.523 204.876 167.254 206.75 165.34C208.625 163.426 210.862 161.905 213.332 160.866C215.802 159.827 218.454 159.291 221.133 159.29H270.573C275.521 159.293 280.295 161.116 283.985 164.412C287.676 167.708 290.025 172.246 290.585 177.162L310.442 326.779Z" fill="#407BFF"/>
<path d="M267.435 311.605H344.604C347.469 311.605 350.217 312.743 352.243 314.769C354.269 316.795 355.407 319.543 355.407 322.409V322.785C355.407 323.817 354.997 324.806 354.268 325.536C353.538 326.266 352.548 326.676 351.517 326.676H267.435V311.605Z" fill="#407BFF"/>
<g opacity="0.3">
<path opacity="0.3" d="M369.687 451.287C369.28 451.287 368.887 451.145 368.573 450.888C368.258 450.63 368.043 450.272 367.962 449.874L343.32 328.53H300.403L275.761 449.874C275.644 450.306 275.366 450.678 274.985 450.913C274.603 451.148 274.147 451.229 273.708 451.14C273.269 451.051 272.88 450.798 272.621 450.433C272.361 450.068 272.251 449.617 272.311 449.173L297.239 326.416C297.322 326.019 297.538 325.662 297.852 325.405C298.165 325.148 298.558 325.006 298.964 325.002H344.746C345.153 325.003 345.546 325.144 345.861 325.402C346.175 325.66 346.391 326.018 346.471 326.416L371.412 449.173C371.504 449.631 371.411 450.106 371.153 450.495C370.895 450.884 370.494 451.155 370.037 451.249L369.687 451.287Z" fill="black"/>
<path opacity="0.3" d="M300.805 451.287C300.399 451.284 300.007 451.142 299.693 450.885C299.379 450.628 299.163 450.271 299.08 449.874L274.438 328.53H231.522L206.879 449.874C206.847 450.113 206.765 450.343 206.641 450.549C206.516 450.756 206.35 450.934 206.153 451.074C205.956 451.214 205.733 451.311 205.497 451.361C205.261 451.411 205.017 451.412 204.781 451.364C204.544 451.316 204.32 451.22 204.122 451.082C203.924 450.944 203.757 450.767 203.63 450.562C203.504 450.356 203.42 450.127 203.386 449.888C203.351 449.65 203.366 449.406 203.429 449.173L228.37 326.416C228.451 326.018 228.666 325.66 228.981 325.402C229.295 325.144 229.689 325.003 230.095 325.002H275.878C276.282 325.004 276.674 325.145 276.986 325.403C277.298 325.661 277.512 326.019 277.59 326.416L302.53 449.173C302.622 449.631 302.529 450.106 302.271 450.495C302.014 450.884 301.612 451.155 301.155 451.249L300.805 451.287Z" fill="black"/>
<path opacity="0.3" d="M310.442 326.779H231.587C224.349 326.781 217.399 323.944 212.229 318.879C207.059 313.813 204.081 306.922 203.935 299.686L201.004 179.847C200.949 177.168 201.429 174.505 202.416 172.014C203.402 169.523 204.876 167.254 206.75 165.34C208.625 163.426 210.862 161.905 213.332 160.866C215.802 159.827 218.454 159.291 221.133 159.29H270.573C275.521 159.293 280.295 161.116 283.985 164.412C287.676 167.708 290.025 172.246 290.585 177.162L310.442 326.779Z" fill="black"/>
<path opacity="0.3" d="M267.435 311.605H344.604C347.469 311.605 350.217 312.743 352.243 314.769C354.269 316.795 355.407 319.543 355.407 322.409V322.785C355.407 323.817 354.997 324.806 354.268 325.536C353.538 326.266 352.548 326.676 351.517 326.676H267.435V311.605Z" fill="black"/>
</g>
<path d="M288.497 152.675C288.497 152.675 299.521 167.072 292.388 195.734C285.255 224.397 248.447 208.834 246.216 182.998C243.622 152.546 277.81 173.543 283.828 146.463L288.497 152.675Z" fill="#263238"/>
<path d="M280.495 144.128C275.709 147.501 273.816 152.403 279.107 157.202C284.399 162.001 291.947 161.845 294.23 159.874C296.513 157.902 296.059 147.89 296.059 147.89L280.495 144.128Z" fill="#407BFF"/>
<path opacity="0.8" d="M280.495 144.128C275.709 147.501 273.816 152.403 279.107 157.202C284.399 162.001 291.947 161.845 294.23 159.874C296.513 157.902 296.059 147.89 296.059 147.89L280.495 144.128Z" fill="white"/>
<path d="M340.934 207.926C341.063 208.509 341.284 209.417 341.491 210.182L342.114 212.621C342.555 214.255 343.035 215.889 343.54 217.523C344.5 220.818 345.564 224.099 346.679 227.38C347.794 230.661 348.936 233.865 350.181 237.185C350.79 238.806 351.4 240.441 352.048 242.062L352.801 244.007C352.951 244.34 353.148 244.65 353.384 244.928C355.231 246.795 357.48 248.215 359.96 249.078C362.989 250.297 366.112 251.269 369.298 251.984C372.592 252.749 375.977 253.384 379.401 253.916C382.825 254.448 386.34 254.876 389.712 255.213L389.829 262.191C382.43 262.956 374.972 262.956 367.573 262.191C363.706 261.792 359.882 261.05 356.147 259.973C354.124 259.362 352.154 258.586 350.259 257.651C348.076 256.591 346.079 255.185 344.345 253.488C343.338 252.486 342.466 251.356 341.751 250.129C341.556 249.818 341.387 249.467 341.206 249.143L340.869 248.443L340.272 247.146C339.468 245.499 338.664 243.852 337.925 242.179C336.42 238.832 334.955 235.46 333.645 232.023C332.335 228.586 331.051 225.123 329.961 221.648C329.429 219.858 328.911 218.081 328.431 216.252L327.717 213.516C327.51 212.53 327.315 211.713 327.108 210.546L340.934 207.926Z" fill="#E58A7B"/>
<path d="M336.524 193.192C342.087 194.606 345.965 217.484 345.965 217.484L330.648 227.86C330.648 227.86 315.954 204.774 320.273 198.666C324.695 192.388 328.405 191.169 336.524 193.192Z" fill="#407BFF"/>
<path opacity="0.5" d="M336.524 193.192C342.087 194.606 345.965 217.484 345.965 217.484L330.648 227.86C330.648 227.86 315.954 204.774 320.273 198.666C324.695 192.388 328.405 191.169 336.524 193.192Z" fill="white"/>
<path opacity="0.2" d="M334.526 198.951L321.207 209.508C323.8 215.921 326.956 222.093 330.635 227.951L341.258 220.727L334.526 198.951Z" fill="#407BFF"/>
<path d="M336.524 193.193C336.524 193.193 343.009 195.449 330.039 274.603H275.281C276.202 252.308 276.228 238.56 265.58 192.791C273.248 191.211 281.019 190.188 288.835 189.73C297.12 189.139 305.438 189.139 313.723 189.73C324.41 190.754 336.524 193.193 336.524 193.193Z" fill="#407BFF"/>
<path opacity="0.5" d="M336.524 193.193C336.524 193.193 343.009 195.449 330.039 274.603H275.281C276.202 252.308 276.228 238.56 265.58 192.791C273.248 191.211 281.019 190.188 288.835 189.73C297.12 189.139 305.438 189.139 313.723 189.73C324.41 190.754 336.524 193.193 336.524 193.193Z" fill="white"/>
<path d="M387.702 255.148L397.26 245.447L398.557 259.117C398.557 259.117 391.385 263.967 386.431 261.36L387.702 255.148Z" fill="#E58A7B"/>
<path d="M408.544 244.007L408.972 255.498L398.544 259.117L397.286 245.447L408.544 244.007Z" fill="#E58A7B"/>
<path d="M392.189 438.707H405.677L407.752 407.463H394.264L392.189 438.707Z" fill="#E58A7B"/>
<path d="M339.986 438.707H353.475L357.807 407.463H344.318L339.986 438.707Z" fill="#E58A7B"/>
<path d="M354.318 437.137H339.156C338.895 437.132 338.641 437.223 338.442 437.393C338.244 437.562 338.115 437.799 338.08 438.058L336.355 450.055C336.324 450.358 336.357 450.664 336.452 450.954C336.547 451.243 336.701 451.51 336.905 451.736C337.109 451.962 337.359 452.143 337.637 452.266C337.915 452.39 338.216 452.454 338.521 452.455C343.799 452.364 346.303 452.052 353.008 452.052C357.106 452.052 367.625 452.481 373.292 452.481C378.96 452.481 379.258 446.878 376.898 446.372C366.328 444.089 360.128 440.963 356.562 437.968C355.936 437.433 355.141 437.139 354.318 437.137Z" fill="#263238"/>
<path d="M406.728 437.138H391.592C391.332 437.135 391.079 437.227 390.881 437.396C390.683 437.566 390.554 437.801 390.516 438.059L388.791 450.055C388.76 450.358 388.793 450.665 388.888 450.954C388.983 451.244 389.137 451.51 389.341 451.736C389.545 451.962 389.795 452.143 390.073 452.267C390.351 452.391 390.652 452.455 390.957 452.455C396.236 452.364 398.739 452.053 405.444 452.053C409.555 452.053 418.024 452.481 423.692 452.481C429.36 452.481 429.658 446.878 427.298 446.372C416.727 444.089 412.564 440.964 409.011 437.968C408.373 437.429 407.563 437.134 406.728 437.138Z" fill="#263238"/>
<path d="M325.772 134.466C330.622 134.777 333.087 159.108 318.859 157.694C304.631 156.281 325.772 134.466 325.772 134.466Z" fill="#263238"/>
<path d="M407.753 407.463L406.676 423.572H393.188L394.251 407.463H407.753Z" fill="#CF6F64"/>
<path d="M344.318 407.463H357.82L355.576 423.572H342.075L344.318 407.463Z" fill="#CF6F64"/>
<path opacity="0.2" d="M271.053 218.237C272.35 224.877 273.271 230.61 273.971 235.772L277.175 210.987L271.053 218.237Z" fill="#407BFF"/>
<path d="M291.299 161.767C292.868 169.769 294.437 184.438 288.834 189.781C288.834 189.781 291.026 197.9 305.902 197.9C322.257 197.9 313.684 189.781 313.684 189.781C304.748 187.654 304.982 181.027 306.538 174.815L291.299 161.767Z" fill="#E58A7B"/>
<path d="M302.945 199.638L307.926 197.849L307.264 196.487L302.945 199.638Z" fill="#263238"/>
<path d="M312.608 198.601L307.926 197.848L308.937 196.331L312.608 198.601Z" fill="#263238"/>
<path d="M290.65 186.007L287.265 189.301C287.164 189.405 287.107 189.545 287.107 189.69C287.107 189.836 287.164 189.975 287.265 190.08L301.532 206.33C302.21 202.471 304.277 198.993 307.342 196.551C295.54 192.09 292.466 187.473 291.415 186.176C291.391 186.1 291.347 186.033 291.289 185.979C291.23 185.926 291.158 185.889 291.081 185.872C291.004 185.855 290.923 185.858 290.848 185.882C290.772 185.906 290.704 185.949 290.65 186.007Z" fill="#407BFF"/>
<path d="M311.039 188.497L315.241 189.639C315.366 189.674 315.481 189.741 315.572 189.835C315.663 189.928 315.728 190.044 315.76 190.171C316.947 195.501 316.723 201.048 315.111 206.266C314.514 204.061 312.517 198.782 308.938 196.331C312.828 193.646 311.259 190.183 310.701 188.874C310.683 188.825 310.679 188.772 310.688 188.721C310.698 188.67 310.722 188.622 310.756 188.584C310.791 188.545 310.836 188.516 310.885 188.501C310.935 188.486 310.988 188.485 311.039 188.497Z" fill="#407BFF"/>
<path d="M297.537 167.084L306.616 174.801C306.238 176.247 305.982 177.722 305.851 179.211C302.44 178.718 297.757 174.983 297.394 171.429C297.172 169.985 297.221 168.511 297.537 167.084Z" fill="#CF6F64"/>
<path d="M290.429 140.679C288.886 153.972 287.939 159.575 293.387 167.513C301.557 179.458 318.236 178.446 323.722 165.878C328.664 154.569 330.35 134.751 318.418 127.177C315.793 125.502 312.784 124.525 309.675 124.341C306.567 124.156 303.463 124.769 300.658 126.122C297.854 127.475 295.442 129.523 293.651 132.07C291.861 134.618 290.752 137.581 290.429 140.679Z" fill="#E58A7B"/>
<path d="M320.831 118.721C298.847 110.044 282.337 119.836 278.926 133.753C273.569 155.36 290.676 156.877 290.676 156.877L292.816 151.352C295.89 153.207 304.489 152.39 301.895 136.347C300.364 127.268 311.856 139.913 326.433 138.499C330.311 138.123 335.616 124.557 320.831 118.721Z" fill="#263238"/>
<path d="M328.314 124.064C325.422 119.616 319.508 115.803 307.251 114C307.251 114 313.62 115.44 315.682 120.096C317.744 124.752 331.803 129.421 328.314 124.064Z" fill="#263238"/>
<path d="M286.202 152.182C286.112 153.461 286.275 154.744 286.683 155.96C287.09 157.175 287.733 158.298 288.575 159.264C290.845 161.858 293.828 160.262 294.762 157.15C295.592 154.335 295.423 149.614 292.388 148.188C289.353 146.761 286.448 149.018 286.202 152.182Z" fill="#E58A7B"/>
<path d="M330.078 274.654C330.078 274.654 420.528 283.072 419.646 324.198C418.725 366.998 409.568 420.459 409.568 420.459H390.879C390.879 420.459 389.284 375.221 388.739 333.082C388.467 311.138 301.065 306.741 301.065 306.741L289.781 274.654H330.078Z" fill="#263238"/>
<path d="M315.604 274.654C315.604 274.654 374.058 294.044 375.536 318.038C378.247 362.212 358.832 420.497 358.832 420.497H340.428C340.428 420.497 341.478 381.848 343.67 341.824C346.446 291.528 257.708 341.124 275.281 274.693L315.604 274.654Z" fill="#263238"/>
<path d="M309.664 147.929C309.469 148.992 309.884 149.965 310.585 150.094C311.285 150.224 311.998 149.446 312.193 148.382C312.387 147.319 311.972 146.333 311.272 146.217C310.572 146.1 309.884 146.852 309.664 147.929Z" fill="#263238"/>
<path d="M321.764 150.095C321.57 151.158 321.985 152.131 322.685 152.26C323.385 152.39 324.112 151.612 324.306 150.548C324.501 149.485 324.086 148.499 323.385 148.383C322.685 148.266 321.959 149.018 321.764 150.095Z" fill="#263238"/>
<path d="M323.061 148.383L325.772 148.097C325.772 148.097 324.15 149.874 323.061 148.383Z" fill="#263238"/>
<path d="M318.236 151.353C318.755 153.966 319.628 156.497 320.83 158.875C320.219 159.153 319.556 159.297 318.885 159.297C318.214 159.297 317.55 159.153 316.939 158.875L318.236 151.353Z" fill="#DF5753"/>
<path d="M312.478 162.337C311.055 162.112 309.705 161.554 308.538 160.709C307.37 159.864 306.419 158.755 305.76 157.474C305.738 157.424 305.736 157.367 305.756 157.316C305.775 157.265 305.814 157.224 305.864 157.201C305.915 157.184 305.972 157.186 306.022 157.207C306.073 157.229 306.113 157.268 306.136 157.318C306.759 158.529 307.658 159.578 308.759 160.379C309.86 161.181 311.134 161.714 312.478 161.935C312.532 161.948 312.579 161.98 312.61 162.026C312.642 162.071 312.655 162.127 312.647 162.182C312.637 162.221 312.616 162.257 312.586 162.285C312.556 162.313 312.518 162.331 312.478 162.337Z" fill="#263238"/>
<path d="M306.823 143.143C306.767 143.145 306.711 143.134 306.659 143.112C306.608 143.089 306.562 143.056 306.525 143.013C306.486 142.977 306.454 142.933 306.433 142.883C306.411 142.834 306.4 142.781 306.4 142.728C306.4 142.674 306.411 142.621 306.433 142.572C306.454 142.523 306.486 142.479 306.525 142.442C307.224 141.76 308.076 141.255 309.01 140.971C309.945 140.686 310.934 140.631 311.894 140.808C311.996 140.839 312.082 140.906 312.135 140.998C312.188 141.09 312.204 141.198 312.18 141.301C312.168 141.353 312.145 141.403 312.114 141.446C312.082 141.49 312.042 141.526 311.996 141.554C311.95 141.582 311.899 141.6 311.846 141.608C311.793 141.616 311.739 141.613 311.687 141.599C310.858 141.453 310.007 141.507 309.203 141.758C308.4 142.008 307.668 142.448 307.07 143.039C307 143.098 306.914 143.135 306.823 143.143Z" fill="#263238"/>
<path d="M328.379 145.27C328.298 145.272 328.219 145.25 328.152 145.206C328.084 145.162 328.032 145.098 328.003 145.023C327.686 144.245 327.189 143.552 326.554 143.002C325.918 142.452 325.161 142.06 324.345 141.859C324.24 141.84 324.145 141.78 324.082 141.693C324.02 141.606 323.993 141.498 324.008 141.392C324.027 141.283 324.088 141.187 324.178 141.124C324.268 141.061 324.38 141.036 324.488 141.054C325.438 141.275 326.321 141.721 327.062 142.355C327.802 142.99 328.379 143.794 328.742 144.699C328.786 144.799 328.789 144.912 328.75 145.014C328.711 145.116 328.634 145.198 328.534 145.244L328.379 145.27Z" fill="#263238"/>
<path d="M273.764 212.361C272.583 216.252 271.312 220.143 270.184 224.138C269.056 228.132 267.862 232.023 266.838 235.979C265.813 239.935 264.841 243.851 264.114 247.651C263.764 249.571 263.44 251.478 263.258 253.267C263.154 254.162 263.103 255.005 263.09 255.783C263.09 255.965 263.09 255.783 262.96 255.485C262.802 255.134 262.582 254.813 262.311 254.538C261.65 253.968 261.404 254.071 261.702 254.162C262.245 254.294 262.803 254.351 263.362 254.331C265.108 254.271 266.845 254.049 268.55 253.669C272.413 252.818 276.22 251.731 279.95 250.414C287.615 247.82 295.397 244.656 302.971 241.426L306.317 247.535C299.131 252.246 291.62 256.441 283.841 260.089C279.813 261.989 275.657 263.606 271.403 264.927C269.035 265.648 266.603 266.139 264.14 266.393C262.602 266.55 261.051 266.511 259.523 266.276C258.509 266.124 257.519 265.841 256.579 265.433C255.363 264.907 254.262 264.149 253.336 263.202C251.538 261.307 250.507 258.811 250.444 256.198C250.379 254.901 250.366 253.605 250.444 252.437C250.535 250.038 250.756 247.768 251.054 245.55C251.676 241.115 252.48 236.835 253.466 232.581C254.452 228.327 255.502 224.215 256.657 220.091C257.811 215.967 259.056 211.92 260.548 207.796L273.764 212.361Z" fill="#E58A7B"/>
<path d="M358.935 439.407C357.74 439.378 356.552 439.212 355.394 438.914C355.351 438.906 355.311 438.885 355.28 438.854C355.249 438.823 355.228 438.783 355.219 438.74C355.211 438.696 355.216 438.652 355.233 438.611C355.25 438.571 355.28 438.536 355.317 438.512C355.771 438.214 359.817 435.594 361.36 436.281C361.522 436.355 361.661 436.471 361.762 436.617C361.862 436.763 361.921 436.934 361.931 437.112C361.996 437.399 361.984 437.699 361.898 437.981C361.811 438.263 361.653 438.518 361.438 438.72C360.711 439.237 359.824 439.48 358.935 439.407ZM356.017 438.603C358.52 439.122 360.401 439.057 361.127 438.383C361.285 438.229 361.401 438.038 361.465 437.827C361.528 437.615 361.537 437.392 361.49 437.176C361.485 437.074 361.452 436.976 361.395 436.891C361.338 436.806 361.259 436.739 361.166 436.697C360.18 436.256 357.444 437.721 356.017 438.603Z" fill="#407BFF"/>
<path d="M355.446 438.928H355.33C355.293 438.907 355.263 438.876 355.243 438.84C355.222 438.803 355.212 438.762 355.213 438.72C355.213 438.564 355.213 434.725 356.666 433.454C356.836 433.291 357.041 433.17 357.267 433.1C357.492 433.03 357.73 433.014 357.963 433.052C358.196 433.05 358.423 433.129 358.605 433.276C358.788 433.423 358.913 433.628 358.961 433.857C359.234 435.257 356.977 438.124 355.563 438.928H355.446ZM357.729 433.454C357.444 433.456 357.17 433.568 356.964 433.766C355.939 434.674 355.732 437.242 355.667 438.266C356.964 437.332 358.702 434.972 358.481 433.921C358.481 433.753 358.352 433.532 357.885 433.467L357.729 433.454Z" fill="#407BFF"/>
<path d="M411.799 439.407C410.374 439.376 408.955 439.215 407.558 438.927C407.513 438.916 407.471 438.891 407.439 438.857C407.407 438.822 407.385 438.779 407.377 438.733C407.37 438.685 407.379 438.636 407.402 438.594C407.426 438.552 407.462 438.519 407.506 438.499C408.103 438.188 413.434 435.464 415.055 436.346C415.196 436.424 415.315 436.536 415.401 436.672C415.487 436.808 415.537 436.964 415.548 437.124C415.584 437.395 415.554 437.67 415.459 437.925C415.364 438.181 415.207 438.409 415.003 438.59C414.06 439.22 412.929 439.509 411.799 439.407ZM408.311 438.603C410.049 438.901 413.498 439.329 414.692 438.266C414.841 438.127 414.955 437.954 415.024 437.763C415.094 437.571 415.118 437.366 415.094 437.163C415.093 437.075 415.068 436.989 415.022 436.914C414.977 436.839 414.912 436.777 414.834 436.735C413.771 436.165 410.191 437.682 408.311 438.603Z" fill="#407BFF"/>
<path d="M407.61 438.927C407.568 438.94 407.522 438.94 407.48 438.927C407.449 438.903 407.423 438.871 407.405 438.835C407.387 438.799 407.377 438.76 407.376 438.72C407.376 438.564 407.701 434.972 409.361 433.532C409.593 433.334 409.864 433.185 410.156 433.096C410.449 433.007 410.756 432.979 411.06 433.013C411.89 433.091 412.123 433.506 412.188 433.83C412.422 435.322 409.283 438.175 407.701 438.889L407.61 438.927ZM410.813 433.454C410.387 433.452 409.976 433.61 409.659 433.895C408.44 434.907 408.012 437.332 407.882 438.305C409.581 437.358 411.903 434.92 411.773 433.921C411.773 433.817 411.773 433.532 411.06 433.467L410.813 433.454Z" fill="#407BFF"/>
<path d="M302.66 241.634L315.448 238.392L309.352 250.674C309.352 250.674 300.701 251.05 297.848 246.225L302.66 241.634Z" fill="#E58A7B"/>
<path d="M325.785 243.048L320.13 253.06L309.353 250.674L315.448 238.392L325.785 243.048Z" fill="#E58A7B"/>
<path d="M310.948 146.216L313.658 145.931C313.658 145.931 311.985 147.708 310.948 146.216Z" fill="#263238"/>
<path d="M274.464 271.438L274.023 276.34C273.842 276.729 274.282 277.119 274.918 277.119H330.35C330.843 277.119 331.245 276.872 331.284 276.561L331.777 271.658C331.777 271.321 331.375 271.036 330.843 271.036H275.359C275.188 271.021 275.016 271.051 274.859 271.121C274.703 271.191 274.567 271.3 274.464 271.438Z" fill="#407BFF"/>
<path d="M281.922 277.65H280.43C280.132 277.65 279.911 277.495 279.924 277.313L280.625 270.932C280.625 270.75 280.91 270.595 281.208 270.595H282.648C282.946 270.595 283.167 270.75 283.154 270.932L282.453 277.313C282.466 277.495 282.207 277.65 281.922 277.65Z" fill="#263238"/>
<path d="M326.174 277.65H324.683C324.384 277.65 324.164 277.495 324.177 277.313L324.877 270.932C324.877 270.75 325.162 270.595 325.461 270.595H326.939C327.238 270.595 327.458 270.75 327.445 270.932L326.745 277.313C326.745 277.495 326.459 277.65 326.174 277.65Z" fill="#263238"/>
<path d="M304.048 277.65H302.556C302.258 277.65 302.037 277.495 302.05 277.313L302.751 270.932C302.751 270.75 303.036 270.595 303.334 270.595H304.813C305.111 270.595 305.332 270.75 305.319 270.932L304.618 277.313C304.592 277.495 304.346 277.65 304.048 277.65Z" fill="#263238"/>
<path d="M265.58 192.842C260.081 194.515 253.492 213.412 253.492 213.412L271.196 230.7C271.196 230.7 282.557 212.867 280.274 205.773C277.849 198.38 271.844 190.948 265.58 192.842Z" fill="#407BFF"/>
<path opacity="0.5" d="M265.58 192.842C260.081 194.515 253.492 213.412 253.492 213.412L271.196 230.7C271.196 230.7 282.557 212.867 280.274 205.773C277.849 198.38 271.844 190.948 265.58 192.842Z" fill="white"/>
<path d="M547.501 264.421H444.314V465.126H547.501V264.421Z" fill="#407BFF"/>
<path opacity="0.6" d="M547.501 264.421H444.314V465.126H547.501V264.421Z" fill="white"/>
<path d="M347.6 264.421H244.414V465.126H347.6V264.421Z" fill="#407BFF"/>
<path opacity="0.6" d="M347.6 264.421H244.414V465.126H347.6V264.421Z" fill="white"/>
<path d="M551.366 264.421H542.857V465.126H551.366V264.421Z" fill="#407BFF"/>
<path opacity="0.3" d="M551.366 264.421H542.857V465.126H551.366V264.421Z" fill="black"/>
<path d="M348.832 279.479H553.999V264.421H348.832V279.479Z" fill="#407BFF"/>
<path opacity="0.3" d="M348.832 279.479H553.999V264.421H348.832V279.479Z" fill="black"/>
<path d="M351.478 264.421H342.97V465.126H351.478V264.421Z" fill="#407BFF"/>
<path opacity="0.3" d="M351.478 264.421H342.97V465.126H351.478V264.421Z" fill="black"/>
<path d="M348.34 312.435H547.112V269.077H348.34V312.435Z" fill="#407BFF"/>
<path opacity="0.3" d="M348.34 312.435H547.112V269.077H348.34V312.435Z" fill="black"/>
<path d="M547.553 470.962H490.266C486.377 470.959 482.648 469.412 479.897 466.662C477.147 463.912 475.601 460.183 475.597 456.294V275.549C475.597 272.11 474.231 268.811 471.799 266.378C469.366 263.946 466.068 262.58 462.628 262.58H445.482V261.283H462.615C466.398 261.283 470.027 262.786 472.703 265.461C475.378 268.137 476.881 271.766 476.881 275.549V456.294C476.885 459.839 478.295 463.238 480.802 465.745C483.309 468.252 486.708 469.662 490.253 469.665H547.553C548.528 469.667 549.479 469.361 550.27 468.791C551.061 468.22 551.651 467.415 551.957 466.489C552.264 465.563 552.27 464.564 551.975 463.635C551.68 462.705 551.099 461.893 550.315 461.313L551.08 460.275C552.081 461.018 552.822 462.057 553.199 463.245C553.575 464.433 553.568 465.71 553.177 466.893C552.786 468.076 552.033 469.107 551.023 469.837C550.013 470.568 548.799 470.961 547.553 470.962Z" fill="#407BFF"/>
<path opacity="0.3" d="M547.553 470.962H490.266C486.377 470.959 482.648 469.412 479.897 466.662C477.147 463.912 475.601 460.183 475.597 456.294V275.549C475.597 272.11 474.231 268.811 471.799 266.378C469.366 263.946 466.068 262.58 462.628 262.58H445.482V261.283H462.615C466.398 261.283 470.027 262.786 472.703 265.461C475.378 268.137 476.881 271.766 476.881 275.549V456.294C476.885 459.839 478.295 463.238 480.802 465.745C483.309 468.252 486.708 469.662 490.253 469.665H547.553C548.528 469.667 549.479 469.361 550.27 468.791C551.061 468.22 551.651 467.415 551.957 466.489C552.264 465.563 552.27 464.564 551.975 463.635C551.68 462.705 551.099 461.893 550.315 461.313L551.08 460.275C552.081 461.018 552.822 462.057 553.199 463.245C553.575 464.433 553.568 465.71 553.177 466.893C552.786 468.076 552.033 469.107 551.023 469.837C550.013 470.568 548.799 470.961 547.553 470.962Z" fill="black"/>
<path d="M555.905 323.641H554.608V348.711H555.905V323.641Z" fill="#407BFF"/>
<path opacity="0.3" d="M555.905 323.641H554.608V348.711H555.905V323.641Z" fill="black"/>
<path d="M555.905 308.842H554.608V315.431H555.905V308.842Z" fill="#407BFF"/>
<path opacity="0.3" d="M555.905 308.842H554.608V315.431H555.905V308.842Z" fill="black"/>
<path d="M460.916 204.502H364.759L350.83 261.283H446.973L460.916 204.502Z" fill="#407BFF"/>
<path opacity="0.4" d="M460.916 204.502H364.759L350.83 261.283H446.973L460.916 204.502Z" fill="white"/>
<path d="M353.774 261.283L353.385 264.421H315.656L316.045 261.283H353.774Z" fill="#407BFF"/>
<path opacity="0.4" d="M353.774 261.283L353.385 264.421H315.656L316.045 261.283H353.774Z" fill="white"/>
<path d="M449.93 261.283L449.541 264.421H353.385L353.774 261.283H449.93Z" fill="#407BFF"/>
<path opacity="0.5" d="M449.93 261.283L449.541 264.421H353.385L353.774 261.283H449.93Z" fill="black"/>
<path d="M463.873 204.502H367.716L353.787 261.283H449.93L463.873 204.502Z" fill="#407BFF"/>
<path opacity="0.5" d="M463.873 204.502H367.716L353.787 261.283H449.93L463.873 204.502Z" fill="black"/>
<path d="M501.005 250.116C501.005 250.116 486.855 225.72 506.439 206.305C506.439 206.305 511.562 209.651 511.484 214.086C511.407 218.522 505.998 219.715 507.152 223.451C508.307 227.186 513.43 230.882 510.071 233.982C506.712 237.082 510.615 239.831 510.382 243.618C510.148 247.405 501.005 250.116 501.005 250.116Z" fill="#407BFF"/>
<path d="M502.081 252.347C502.081 252.347 507.814 224.735 483.068 212.504C483.068 212.504 479.255 217.29 480.746 221.583C482.238 225.876 487.724 225.189 487.802 229.118C487.88 233.048 484.196 238.132 488.36 240.013C492.523 241.894 489.657 245.745 491.096 249.273C492.536 252.801 502.081 252.347 502.081 252.347Z" fill="#407BFF"/>
<path opacity="0.5" d="M502.081 252.347C502.081 252.347 507.814 224.735 483.068 212.504C483.068 212.504 479.255 217.29 480.746 221.583C482.238 225.876 487.724 225.189 487.802 229.118C487.88 233.048 484.196 238.132 488.36 240.013C492.523 241.894 489.657 245.745 491.096 249.273C492.536 252.801 502.081 252.347 502.081 252.347Z" fill="black"/>
<path d="M480.396 246.225C480.396 246.225 480.876 264.383 498.917 264.383C516.957 264.383 517.424 246.225 517.424 246.225H480.396Z" fill="#407BFF"/>
<path opacity="0.5" d="M480.396 246.225C480.396 246.225 480.876 264.383 498.917 264.383C516.957 264.383 517.424 246.225 517.424 246.225H480.396Z" fill="black"/>
<path d="M359.307 147.2L390.938 176.407L411.278 138.462L399.051 140.518L391.744 97.0556L364.227 101.682L371.535 145.144L359.307 147.2Z" fill="#407BFF"/>
<path d="M421.007 119.4C421.007 109.769 424.833 100.532 431.644 93.7218C438.454 86.9115 447.691 83.0854 457.322 83.0854V92.5403C453.797 92.5386 450.306 93.2314 447.049 94.5792C443.792 95.927 440.832 97.9033 438.339 100.395C435.846 102.887 433.868 105.846 432.519 109.102C431.17 112.359 430.475 115.849 430.475 119.374L421.007 119.4Z" fill="#407BFF"/>
<path d="M421.007 119.4H430.475C430.475 126.521 433.304 133.349 438.338 138.384C443.373 143.419 450.202 146.247 457.322 146.247C462.033 146.256 466.661 145.012 470.733 142.642L475.48 150.904C469.959 154.091 463.697 155.769 457.322 155.769C450.947 155.769 444.685 154.091 439.164 150.903C433.643 147.716 429.059 143.131 425.872 137.61C422.685 132.09 421.007 125.827 421.007 119.452V119.4Z" fill="#407BFF"/>
<path opacity="0.5" d="M421.007 119.4H430.475C430.475 126.521 433.304 133.349 438.338 138.384C443.373 143.419 450.202 146.247 457.322 146.247C462.033 146.256 466.661 145.012 470.733 142.642L475.48 150.904C469.959 154.091 463.697 155.769 457.322 155.769C450.947 155.769 444.685 154.091 439.164 150.903C433.643 147.716 429.059 143.131 425.872 137.61C422.685 132.09 421.007 125.827 421.007 119.452V119.4Z" fill="white"/>
<path d="M457.322 92.5401V83.0593C465.342 83.0287 473.146 85.6536 479.517 90.5244C485.888 95.3953 490.468 102.238 492.541 109.985C494.615 117.732 494.065 125.948 490.979 133.35C487.892 140.752 482.443 146.924 475.48 150.903L470.746 142.694C475.902 139.758 479.94 135.196 482.228 129.721C484.516 124.246 484.925 118.168 483.391 112.436C481.857 106.704 478.466 101.642 473.75 98.0424C469.033 94.4425 463.256 92.5076 457.322 92.5401Z" fill="#407BFF"/>
<path opacity="0.7" d="M457.322 92.5401V83.0593C465.342 83.0287 473.146 85.6536 479.517 90.5244C485.888 95.3953 490.468 102.238 492.541 109.985C494.615 117.732 494.065 125.948 490.979 133.35C487.892 140.752 482.443 146.924 475.48 150.903L470.746 142.694C475.902 139.758 479.94 135.196 482.228 129.721C484.516 124.246 484.925 118.168 483.391 112.436C481.857 106.704 478.466 101.642 473.75 98.0424C469.033 94.4425 463.256 92.5076 457.322 92.5401Z" fill="black"/>
</svg>
